<?xml version="1.0" encoding="UTF-8" standalone="no"?>
<!-- Created with Inkscape (http://www.inkscape.org/) -->

<svg
   xmlns:dc="http://purl.org/dc/elements/1.1/"
   xmlns:cc="http://creativecommons.org/ns#"
   xmlns:rdf="http://www.w3.org/1999/02/22-rdf-syntax-ns#"
   xmlns:svg="http://www.w3.org/2000/svg"
   xmlns="http://www.w3.org/2000/svg"
   xmlns:sodipodi="http://sodipodi.sourceforge.net/DTD/sodipodi-0.dtd"
   xmlns:inkscape="http://www.inkscape.org/namespaces/inkscape"
   version="1.0"
   width="2635.5195"
   height="3043.2358"
   id="svg2811"
   inkscape:version="0.92.3 (unknown)"
   sodipodi:docname="apple.svg"
   inkscape:export-filename="/home/pacha/GitHub/gravity/docs/apple.png"
   inkscape:export-xdpi="90"
   inkscape:export-ydpi="90">
  <metadata
     id="metadata17">
    <rdf:RDF>
      <cc:Work
         rdf:about="">
        <dc:format>image/svg+xml</dc:format>
        <dc:type
           rdf:resource="http://purl.org/dc/dcmitype/StillImage" />
        <dc:title />
      </cc:Work>
    </rdf:RDF>
  </metadata>
  <sodipodi:namedview
     pagecolor="#ffffff"
     bordercolor="#666666"
     borderopacity="1"
     objecttolerance="10"
     gridtolerance="10"
     guidetolerance="10"
     inkscape:pageopacity="0"
     inkscape:pageshadow="2"
     inkscape:window-width="1535"
     inkscape:window-height="876"
     id="namedview15"
     showgrid="false"
     fit-margin-top="0"
     fit-margin-left="0"
     fit-margin-right="0"
     fit-margin-bottom="0"
     inkscape:zoom="0.25954503"
     inkscape:cx="828.29924"
     inkscape:cy="1558.6469"
     inkscape:window-x="65"
     inkscape:window-y="24"
     inkscape:window-maximized="1"
     inkscape:current-layer="g4508"
     showguides="true"
     inkscape:guide-bbox="true">
    <sodipodi:guide
       position="1321.3189,258.91631"
       orientation="1,0"
       id="guide4444"
       inkscape:locked="false" />
    <sodipodi:guide
       position="32.272977,2263.7942"
       orientation="0,1"
       id="guide4506"
       inkscape:locked="false" />
    <sodipodi:guide
       position="32.272905,779.44188"
       orientation="0,1"
       id="guide114"
       inkscape:locked="false" />
  </sodipodi:namedview>
  <defs
     id="defs2813">
    <inkscape:perspective
       sodipodi:type="inkscape:persp3d"
       inkscape:vp_x="0 : 882.13641 : 1"
       inkscape:vp_y="0 : 1000 : 0"
       inkscape:vp_z="1500 : 882.13641 : 1"
       inkscape:persp3d-origin="750 : 588.09094 : 1"
       id="perspective4362" />
    <clipPath
       id="clp12">
      <path
         d="m 45.315,71.927 12.92,0 0,15.867 -12.92,0 0,-15.867 z"
         id="path184"
         inkscape:connector-curvature="0" />
    </clipPath>
    <clipPath
       id="clp21">
      <path
         d="m 123.91,72.178 26.23,0 0,15.294 -26.23,0 0,-15.294 z"
         id="path592"
         inkscape:connector-curvature="0" />
    </clipPath>
    <clipPath
       id="clp9">
      <path
         d="m 413.96,49.857 31.76,0 0,8.719 -31.76,0 0,-8.719 z"
         id="path100"
         inkscape:connector-curvature="0" />
    </clipPath>
  </defs>
  <g
     transform="translate(2004.149,-131.75116)"
     id="layer1">
    <g
       transform="translate(19.48863,19.49672)"
       id="g25472">
      <g
         id="g4353"
         transform="matrix(0.67573771,0,0,0.67573771,374.45067,977.3331)">
        <g
           transform="translate(80.542606,0)"
           id="g4347">
          <path
             sodipodi:type="star"
             style="fill:#e6e6e6;fill-opacity:1;stroke:#c30e2e;stroke-width:73.99320221;stroke-miterlimit:4;stroke-dasharray:none;stroke-opacity:1"
             id="path4524"
             sodipodi:sides="6"
             sodipodi:cx="-5551.2134"
             sodipodi:cy="-204.52565"
             sodipodi:r1="1701.6108"
             sodipodi:r2="1473.6381"
             sodipodi:arg1="1.0471976"
             sodipodi:arg2="1.5707963"
             inkscape:flatsided="true"
             inkscape:rounded="0"
             inkscape:randomized="0"
             d="m -4700.408,1269.1126 -1701.6109,-10e-5 -850.8053,-1473.63823 850.8055,-1473.63817 1701.6108,10e-5 850.8054,1473.63823 z"
             inkscape:transform-center-x="7.2042531e-05"
             inkscape:transform-center-y="0.00015395784"
             transform="matrix(0,1.2909178,-1.2909178,0,-1943.3079,8137.749)" />
          <g
             id="g4538"
             transform="translate(-324.57372)">
            <path
               inkscape:connector-curvature="0"
               id="path4526"
               d="M -444.71497,-699.8956 V 2621.7683"
               style="fill:none;fill-rule:evenodd;stroke:#ffffff;stroke-width:23.37500381;stroke-linecap:butt;stroke-linejoin:miter;stroke-miterlimit:4;stroke-dasharray:none;stroke-opacity:1" />
            <path
               style="fill:none;fill-rule:evenodd;stroke:#ffffff;stroke-width:25.82813263;stroke-linecap:butt;stroke-linejoin:miter;stroke-miterlimit:4;stroke-dasharray:none;stroke-opacity:1"
               d="M -1051.3825,-1066.7853 V 2988.658"
               id="path4528"
               inkscape:connector-curvature="0" />
            <path
               inkscape:connector-curvature="0"
               id="path4530"
               d="M -1658.05,-1062.7535 V 2992.6897"
               style="fill:none;fill-rule:evenodd;stroke:#ffffff;stroke-width:25.82813263;stroke-linecap:butt;stroke-linejoin:miter;stroke-miterlimit:4;stroke-dasharray:none;stroke-opacity:1" />
            <path
               style="fill:none;fill-rule:evenodd;stroke:#ffffff;stroke-width:23.58683395;stroke-linecap:butt;stroke-linejoin:miter;stroke-miterlimit:4;stroke-dasharray:none;stroke-opacity:1"
               d="M -2264.7175,-720.05437 V 2662.0858"
               id="path4532"
               inkscape:connector-curvature="0" />
            <path
               inkscape:connector-curvature="0"
               id="path4534"
               d="M -2871.3852,-357.19643 V 2283.1009"
               style="fill:none;fill-rule:evenodd;stroke:#ffffff;stroke-width:20.84012222;stroke-linecap:butt;stroke-linejoin:miter;stroke-miterlimit:4;stroke-dasharray:none;stroke-opacity:1" />
            <path
               style="fill:none;fill-rule:evenodd;stroke:#ffffff;stroke-width:20.87192154;stroke-linecap:butt;stroke-linejoin:miter;stroke-miterlimit:4;stroke-dasharray:none;stroke-opacity:1"
               d="M 161.95255,-369.29169 V 2279.0691"
               id="path4536"
               inkscape:connector-curvature="0" />
          </g>
          <g
             transform="rotate(90,-1525.0627,816.79635)"
             id="g4546">
            <path
               style="fill:none;fill-rule:evenodd;stroke:#ffffff;stroke-width:25.08565712;stroke-linecap:butt;stroke-linejoin:miter;stroke-miterlimit:4;stroke-dasharray:none;stroke-opacity:1"
               d="M -444.71497,-925.67388 V 2899.9594"
               id="path4548"
               inkscape:connector-curvature="0" />
            <path
               inkscape:connector-curvature="0"
               id="path4550"
               d="M -1051.3825,-957.92792 V 2899.9594"
               style="fill:none;fill-rule:evenodd;stroke:#ffffff;stroke-width:25.1911869;stroke-linecap:butt;stroke-linejoin:miter;stroke-miterlimit:4;stroke-dasharray:none;stroke-opacity:1" />
            <path
               style="fill:none;fill-rule:evenodd;stroke:#ffffff;stroke-width:25.05920601;stroke-linecap:butt;stroke-linejoin:miter;stroke-miterlimit:4;stroke-dasharray:none;stroke-opacity:1"
               d="M -1658.05,-917.61037 V 2899.9594"
               id="path4552"
               inkscape:connector-curvature="0" />
            <path
               inkscape:connector-curvature="0"
               id="path4554"
               d="M -2264.7175,-901.48335 V 2859.6418"
               style="fill:none;fill-rule:evenodd;stroke:#ffffff;stroke-width:24.87326241;stroke-linecap:butt;stroke-linejoin:miter;stroke-miterlimit:4;stroke-dasharray:none;stroke-opacity:1" />
            <path
               style="fill:none;fill-rule:evenodd;stroke:#ffffff;stroke-width:20.03550529;stroke-linecap:butt;stroke-linejoin:miter;stroke-miterlimit:4;stroke-dasharray:none;stroke-opacity:1"
               d="M -2871.3852,-238.73614 V 2201.6181"
               id="path4556"
               inkscape:connector-curvature="0" />
            <path
               inkscape:connector-curvature="0"
               id="path4558"
               d="M 161.95255,-164.61323 V 2138.8987"
               style="fill:none;fill-rule:evenodd;stroke:#ffffff;stroke-width:19.46565628;stroke-linecap:butt;stroke-linejoin:miter;stroke-miterlimit:4;stroke-dasharray:none;stroke-opacity:1" />
          </g>
          <g
             id="g4508"
             transform="matrix(1,0,0.00587999,1,-3829.5588,-1.5047149e-6)">
            <g
               transform="matrix(0.9797074,0,0,0.9797074,-33.269302,-616.97222)"
               id="g4483">
              <path
                 d="m 2521.0571,315.59539 c 91.1595,-110.4132 152.7006,-263.9406 135.7503,-416.9661 -131.3208,5.271299 -290.2668,87.542399 -384.5568,197.9556 -84.4119,97.5825 -158.4588,253.9005 -138.393,403.8105 146.4549,11.3541 296.025,-74.5491 387.1995,-184.8"
                 style="fill:#00833c;fill-opacity:1;fill-rule:nonzero;stroke:none"
                 id="path190"
                 inkscape:connector-curvature="0" />
              <g
                 id="g112"
                 transform="translate(0.35671168,-60.665355)">
                <path
                   sodipodi:nodetypes="ccccccccccccccccccccccccccccccc"
                   inkscape:connector-curvature="0"
                   id="path60"
                   d="m 1814.8139,561.60853 c -11.2077,-0.0745 -22.4238,0.26802 -33.6122,1.08643 -48.2514,2.16797 -96.4362,8.99849 -143.3423,21.00418 -107.5708,23.50332 -208.6766,76.09957 -290.5471,149.71103 -91.5264,81.59629 -158.8672,188.59129 -198.0641,304.44523 -50.4792,147.462 -59.1067,306.4773 -42.8718,460.6448 20.3557,189.0758 76.2547,373.7437 159.3227,544.5896 36.4749,74.7858 79.7049,146.1765 128.229,213.745 54.4328,77.6696 112.0291,155.026 186.434,214.883 48.0052,38.1623 105.7138,67.7536 167.9027,70.9704 28.8892,0.4212 53.8345,-1.7133 80.0256,-2.9454 49.7208,-1.601 98.3644,-15.2543 144.2779,-34.2653 49.9765,-21.2603 99.7218,-44.7096 152.6609,-57.1079 30.5225,-6.9634 61.6808,-10.9432 92.9236,-12.055 31.2285,1.112 62.3388,5.0919 92.7784,12.055 52.7933,12.3983 102.2629,35.8476 151.9892,57.1079 45.69,19.011 94.1732,32.6643 143.875,34.2653 26.8505,0.1789 55.7602,4.094 79.9911,2.9454 62.2267,-3.2168 120.2832,-32.8081 168.7371,-70.9704 75.1088,-59.857 133.6148,-137.2134 188.961,-214.883 49.3188,-67.5685 93.3884,-138.9592 130.7429,-213.745 85.0771,-170.8459 143.1476,-355.5138 165.7268,-544.5896 18.048,-154.1675 11.2905,-313.1828 -37.4544,-460.6448 -37.8346,-115.85394 -103.9172,-222.84894 -194.484,-304.44523 -81.0046,-73.61146 -181.4921,-126.20771 -288.7863,-149.71103 -46.7651,-12.00569 -94.8696,-18.83621 -143.0954,-21.00418 -11.1789,-0.81841 -22.3908,-1.16096 -33.5995,-1.08643 -92.5823,0.79462 -181.8175,30.18899 -267.302,63.23437 -48.9502,18.16161 -96.946,40.40722 -147.7413,52.61112 -50.6515,-12.2039 -98.3825,-34.44951 -147.1192,-52.61112 -85.0958,-33.04538 -173.9854,-62.43975 -266.5583,-63.23437 z"
                   style="fill:#c30e2e;fill-opacity:1;fill-rule:nonzero;stroke:none;stroke-width:1" />
                <path
                   sodipodi:nodetypes="ccccc"
                   inkscape:connector-curvature="0"
                   id="path4309"
                   d="m 2923.2169,771.08017 c -111.4365,-75.7686 -218.562,29.8074 -113.8941,109.13671 120.2649,107.24852 134.718,150.22742 161.8218,208.05632 35.6391,89.2482 142.4631,30.933 133.3056,-60.4779 -21.8337,-103.91942 -102.5205,-196.59813 -181.2333,-256.71513 z"
                   style="fill:#ffffff;fill-rule:evenodd;stroke:none;stroke-width:1px;stroke-linecap:butt;stroke-linejoin:miter;stroke-opacity:1" />
              </g>
            </g>
            <g
               aria-label="gravity"
               style="font-style:normal;font-weight:normal;line-height:0%;font-family:sans-serif;letter-spacing:0px;word-spacing:0px;fill:#000000;fill-opacity:1;stroke:none;stroke-width:1px;stroke-linecap:butt;stroke-linejoin:miter;stroke-opacity:1"
               id="text4502"
               transform="matrix(1.1082909,0,0,1.1082909,-169.15324,2204.2369)">
              <g
                 id="g865"
                 transform="translate(-68.37497)">
                <path
                   inkscape:connector-curvature="0"
                   id="path3797"
                   style="font-style:normal;font-variant:normal;font-weight:normal;font-stretch:normal;font-size:549.39764404px;line-height:1.25;font-family:'Roboto Condensed';-inkscape-font-specification:'Roboto Condensed, '"
                   d="m 1449.6471,10.781059 q 0,-67.869924 24.68,-102.475537 24.68,-34.873872 72.1621,-34.873872 44.263,0 67.3334,37.824738 l 2.4143,-32.459528 h 42.9217 V 171.7374 q 0,53.92037 -27.6308,82.62426 -27.6308,28.97214 -76.9908,28.97214 -21.4608,0 -48.2869,-10.73043 -26.5578,-10.46216 -39.9708,-26.02127 l 19.3147,-32.72779 q 29.5087,28.97214 65.1874,28.97214 59.2855,0 60.8951,-64.6508 v -37.82474 q -23.0704,34.0691 -65.4556,34.0691 -45.0677,0 -70.2842,-33.80084 -25.2165,-34.06909 -26.2896,-97.646843 z m 47.4822,27.094317 q 0,48.823424 14.2178,71.893834 14.486,22.80215 47.2138,22.80215 35.4104,0 53.1156,-36.21518 V -48.772787 q -18.51,-35.678656 -52.5791,-35.678656 -32.7277,0 -47.2138,23.070409 -14.4861,22.802148 -14.7543,70.284269 z" />
                <path
                   inkscape:connector-curvature="0"
                   id="path3799"
                   style="font-style:normal;font-variant:normal;font-weight:normal;font-stretch:normal;font-size:549.39764404px;line-height:1.25;font-family:'Roboto Condensed';-inkscape-font-specification:'Roboto Condensed, '"
                   d="m 1849.3554,-76.671886 q -9.9257,-1.877824 -21.4609,-1.877824 -36.4834,0 -50.9695,39.970824 V 169.05479 h -47.4821 v -290.25793 h 46.1408 l 0.8048,29.508662 q 19.0465,-34.873872 53.9204,-34.873872 11.2669,0 18.7782,3.75565 z" />
                <path
                   inkscape:connector-curvature="0"
                   id="path3801"
                   style="font-style:normal;font-variant:normal;font-weight:normal;font-stretch:normal;font-size:549.39764404px;line-height:1.25;font-family:'Roboto Condensed';-inkscape-font-specification:'Roboto Condensed, '"
                   d="m 2035.5282,169.05479 q -4.2922,-9.38912 -6.17,-31.65474 -25.2165,37.01996 -64.3825,37.01996 -39.4343,0 -61.7,-21.99737 -21.9973,-22.26563 -21.9973,-62.504713 0,-44.262994 30.0451,-70.284269 30.0452,-26.0212754 82.356,-26.5577965 h 34.8739 V -37.774104 q 0,-26.021275 -11.5352,-37.019958 -11.5352,-10.998684 -35.1421,-10.998684 -21.4609,0 -34.8739,12.876508 -13.413,12.608246 -13.413,32.191268 h -47.4821 q 0,-22.265627 13.1447,-42.38517 13.1448,-20.3878 35.4104,-31.92301 22.2656,-11.5352 49.6282,-11.5352 44.5313,0 67.6017,22.26563 23.3387,21.997362 23.8752,64.382532 V 106.55008 q 0.2682,33.53257 9.1208,58.21255 v 4.29216 z m -63.3095,-37.82474 q 17.4369,0 33.2643,-9.65738 15.8274,-9.65738 23.0704,-24.143447 V 28.217996 h -26.826 q -33.8009,0.536521 -53.3839,15.290852 -19.583,14.486071 -19.583,40.775607 0,24.679975 9.9256,35.946915 9.9257,10.99868 33.5326,10.99868 z" />
                <path
                   inkscape:connector-curvature="0"
                   id="path3803"
                   style="font-style:normal;font-variant:normal;font-weight:normal;font-stretch:normal;font-size:549.39764404px;line-height:1.25;font-family:'Roboto Condensed';-inkscape-font-specification:'Roboto Condensed, '"
                   d="m 2227.0663,96.892701 54.9934,-218.095841 h 48.2869 l -86.1117,290.25793 h -35.4104 l -87.1846,-290.25793 h 48.2869 z" />
                <path
                   inkscape:connector-curvature="0"
                   id="path3805"
                   style="font-style:normal;font-variant:normal;font-weight:normal;font-stretch:normal;font-size:549.39764404px;line-height:1.25;font-family:'Roboto Condensed';-inkscape-font-specification:'Roboto Condensed, '"
                   d="m 2430.9443,169.05479 h -47.4821 v -290.25793 h 47.4821 z m 3.7557,-367.24871 q 0,12.07172 -6.7066,20.11954 -6.7065,8.04782 -20.3878,8.04782 -13.413,0 -20.1195,-8.04782 -6.7065,-8.04782 -6.7065,-20.11954 0,-12.07173 6.7065,-20.38781 6.7065,-8.31607 20.1195,-8.31607 13.4131,0 20.1196,8.58433 6.9748,8.31608 6.9748,20.11955 z" />
                <path
                   inkscape:connector-curvature="0"
                   id="path3807"
                   style="font-style:normal;font-variant:normal;font-weight:normal;font-stretch:normal;font-size:549.39764404px;line-height:1.25;font-family:'Roboto Condensed';-inkscape-font-specification:'Roboto Condensed, '"
                   d="m 2567.4889,-191.48741 v 70.28427 h 43.7265 v 38.361261 h -43.7265 V 97.160962 q 0,17.168678 5.6335,26.021278 5.6334,8.8526 19.3147,8.8526 9.3891,0 19.0465,-3.21913 l -0.5365,40.23908 q -16.0956,5.36522 -32.996,5.36522 -28.1674,0 -42.9217,-20.11955 -14.7544,-20.11954 -14.7544,-56.871237 V -82.841879 h -44.263 v -38.361261 h 44.263 v -70.28427 z" />
                <path
                   inkscape:connector-curvature="0"
                   id="path3809"
                   style="font-style:normal;font-variant:normal;font-weight:normal;font-stretch:normal;font-size:549.39764404px;line-height:1.25;font-family:'Roboto Condensed';-inkscape-font-specification:'Roboto Condensed, '"
                   d="m 2746.687,90.186187 52.8473,-211.389327 h 50.433 l -94.9642,331.3018 q -10.7305,37.28822 -30.3135,56.60298 -19.583,19.58302 -44.5312,19.58302 -9.6574,0 -24.68,-4.29217 v -40.23908 l 10.4622,1.07304 q 20.656,0 32.1912,-9.92564 11.8035,-9.65738 19.0465,-33.80083 l 9.3891,-32.45953 -85.3068,-287.84359 h 51.7743 z" />
              </g>
            </g>
          </g>
          <path
             transform="matrix(0,1.2909178,-1.2909178,0,-1943.3079,8137.749)"
             inkscape:transform-center-y="0.00015395784"
             inkscape:transform-center-x="7.2042531e-05"
             d="m -4700.408,1269.1126 -1701.6109,-10e-5 -850.8053,-1473.63823 850.8055,-1473.63817 1701.6108,10e-5 850.8054,1473.63823 z"
             inkscape:randomized="0"
             inkscape:rounded="0"
             inkscape:flatsided="true"
             sodipodi:arg2="1.5707963"
             sodipodi:arg1="1.0471976"
             sodipodi:r2="1473.6381"
             sodipodi:r1="1701.6108"
             sodipodi:cy="-204.52565"
             sodipodi:cx="-5551.2134"
             sodipodi:sides="6"
             id="path4560"
             style="fill:none;fill-opacity:1;stroke:#c30e2e;stroke-width:73.99320221;stroke-miterlimit:4;stroke-dasharray:none;stroke-opacity:1"
             sodipodi:type="star" />
        </g>
      </g>
    </g>
  </g>
</svg>
