<?xml version="1.0" encoding="UTF-8" standalone="no"?>
<!-- Created with Inkscape (http://www.inkscape.org/) -->

<svg
   xmlns:dc="http://purl.org/dc/elements/1.1/"
   xmlns:cc="http://creativecommons.org/ns#"
   xmlns:rdf="http://www.w3.org/1999/02/22-rdf-syntax-ns#"
   xmlns:svg="http://www.w3.org/2000/svg"
   xmlns="http://www.w3.org/2000/svg"
   xmlns:sodipodi="http://sodipodi.sourceforge.net/DTD/sodipodi-0.dtd"
   xmlns:inkscape="http://www.inkscape.org/namespaces/inkscape"
   version="1.0"
   width="2635.5195"
   height="3043.2358"
   id="svg2811"
   inkscape:version="0.92.3 (2405546, 2018-03-11)"
   sodipodi:docname="apple.svg"
   inkscape:export-filename="/home/pacha/GitHub/gravity/docs/apple.png"
   inkscape:export-xdpi="90"
   inkscape:export-ydpi="90">
  <metadata
     id="metadata17">
    <rdf:RDF>
      <cc:Work
         rdf:about="">
        <dc:format>image/svg+xml</dc:format>
        <dc:type
           rdf:resource="http://purl.org/dc/dcmitype/StillImage" />
        <dc:title />
      </cc:Work>
    </rdf:RDF>
  </metadata>
  <sodipodi:namedview
     pagecolor="#ffffff"
     bordercolor="#666666"
     borderopacity="1"
     objecttolerance="10"
     gridtolerance="10"
     guidetolerance="10"
     inkscape:pageopacity="0"
     inkscape:pageshadow="2"
     inkscape:window-width="1366"
     inkscape:window-height="736"
     id="namedview15"
     showgrid="false"
     fit-margin-top="0"
     fit-margin-left="0"
     fit-margin-right="0"
     fit-margin-bottom="0"
     inkscape:zoom="0.18352605"
     inkscape:cx="1744.0229"
     inkscape:cy="1066.1369"
     inkscape:window-x="1600"
     inkscape:window-y="132"
     inkscape:window-maximized="1"
     inkscape:current-layer="g4538"
     showguides="true"
     inkscape:guide-bbox="true">
    <sodipodi:guide
       position="1321.3189,258.91631"
       orientation="1,0"
       id="guide4444"
       inkscape:locked="false" />
    <sodipodi:guide
       position="5332.1836,2243.1578"
       orientation="0,1"
       id="guide4506"
       inkscape:locked="false" />
  </sodipodi:namedview>
  <defs
     id="defs2813">
    <inkscape:perspective
       sodipodi:type="inkscape:persp3d"
       inkscape:vp_x="0 : 882.13641 : 1"
       inkscape:vp_y="0 : 1000 : 0"
       inkscape:vp_z="1500 : 882.13641 : 1"
       inkscape:persp3d-origin="750 : 588.09094 : 1"
       id="perspective4362" />
    <clipPath
       id="clp12">
      <path
         d="m 45.315,71.927 12.92,0 0,15.867 -12.92,0 0,-15.867 z"
         id="path184"
         inkscape:connector-curvature="0" />
    </clipPath>
    <clipPath
       id="clp21">
      <path
         d="m 123.91,72.178 26.23,0 0,15.294 -26.23,0 0,-15.294 z"
         id="path592"
         inkscape:connector-curvature="0" />
    </clipPath>
    <clipPath
       id="clp9">
      <path
         d="m 413.96,49.857 31.76,0 0,8.719 -31.76,0 0,-8.719 z"
         id="path100"
         inkscape:connector-curvature="0" />
    </clipPath>
  </defs>
  <g
     transform="translate(2004.149,-131.75116)"
     id="layer1">
    <g
       transform="translate(19.48863,19.49672)"
       id="g25472">
      <g
         id="g4353"
         transform="matrix(0.67573771,0,0,0.67573771,374.45067,977.3331)">
        <g
           transform="translate(80.542606,0)"
           id="g4347">
          <path
             sodipodi:type="star"
             style="fill:#e6e6e6;fill-opacity:1;stroke:#c30e2e;stroke-width:73.99320221;stroke-miterlimit:4;stroke-dasharray:none;stroke-opacity:1"
             id="path4524"
             sodipodi:sides="6"
             sodipodi:cx="-5551.2134"
             sodipodi:cy="-204.52565"
             sodipodi:r1="1701.6108"
             sodipodi:r2="1473.6381"
             sodipodi:arg1="1.0471976"
             sodipodi:arg2="1.5707963"
             inkscape:flatsided="true"
             inkscape:rounded="0"
             inkscape:randomized="0"
             d="m -4700.408,1269.1126 -1701.6109,-10e-5 -850.8053,-1473.63823 850.8055,-1473.63817 1701.6108,10e-5 850.8054,1473.63823 z"
             inkscape:transform-center-x="7.2042531e-05"
             inkscape:transform-center-y="0.00015395784"
             transform="matrix(0,1.2909178,-1.2909178,0,-1943.3079,8137.749)" />
          <g
             id="g4538"
             transform="translate(-324.56577,0)">
            <path
               inkscape:connector-curvature="0"
               id="path4526"
               d="m -444.71497,-699.8956 0,3321.6639"
               style="fill:none;fill-rule:evenodd;stroke:#ffffff;stroke-width:23.37500381;stroke-linecap:butt;stroke-linejoin:miter;stroke-miterlimit:4;stroke-dasharray:none;stroke-opacity:1" />
            <path
               style="fill:none;fill-rule:evenodd;stroke:#ffffff;stroke-width:25.82813263;stroke-linecap:butt;stroke-linejoin:miter;stroke-miterlimit:4;stroke-dasharray:none;stroke-opacity:1"
               d="m -1051.3825,-1066.7853 0,4055.4433"
               id="path4528"
               inkscape:connector-curvature="0" />
            <path
               inkscape:connector-curvature="0"
               id="path4530"
               d="m -1658.05,-1062.7535 0,4055.4432"
               style="fill:none;fill-rule:evenodd;stroke:#ffffff;stroke-width:25.82813263;stroke-linecap:butt;stroke-linejoin:miter;stroke-miterlimit:4;stroke-dasharray:none;stroke-opacity:1" />
            <path
               style="fill:none;fill-rule:evenodd;stroke:#ffffff;stroke-width:23.58683395;stroke-linecap:butt;stroke-linejoin:miter;stroke-miterlimit:4;stroke-dasharray:none;stroke-opacity:1"
               d="m -2264.7175,-720.05437 0,3382.14017"
               id="path4532"
               inkscape:connector-curvature="0" />
            <path
               inkscape:connector-curvature="0"
               id="path4534"
               d="m -2871.3852,-357.19643 0,2640.29733"
               style="fill:none;fill-rule:evenodd;stroke:#ffffff;stroke-width:20.84012222;stroke-linecap:butt;stroke-linejoin:miter;stroke-miterlimit:4;stroke-dasharray:none;stroke-opacity:1" />
            <path
               style="fill:none;fill-rule:evenodd;stroke:#ffffff;stroke-width:20.87192154;stroke-linecap:butt;stroke-linejoin:miter;stroke-miterlimit:4;stroke-dasharray:none;stroke-opacity:1"
               d="m 161.95255,-369.29169 0,2648.36079"
               id="path4536"
               inkscape:connector-curvature="0" />
          </g>
          <g
             transform="matrix(0,1,-1,0,-692.13935,2341.8591)"
             id="g4546">
            <path
               style="fill:none;fill-rule:evenodd;stroke:#ffffff;stroke-width:25.08565712;stroke-linecap:butt;stroke-linejoin:miter;stroke-miterlimit:4;stroke-dasharray:none;stroke-opacity:1"
               d="M -444.71497,-925.67388 V 2899.9594"
               id="path4548"
               inkscape:connector-curvature="0" />
            <path
               inkscape:connector-curvature="0"
               id="path4550"
               d="M -1051.3825,-957.92792 V 2899.9594"
               style="fill:none;fill-rule:evenodd;stroke:#ffffff;stroke-width:25.1911869;stroke-linecap:butt;stroke-linejoin:miter;stroke-miterlimit:4;stroke-dasharray:none;stroke-opacity:1" />
            <path
               style="fill:none;fill-rule:evenodd;stroke:#ffffff;stroke-width:25.05920601;stroke-linecap:butt;stroke-linejoin:miter;stroke-miterlimit:4;stroke-dasharray:none;stroke-opacity:1"
               d="M -1658.05,-917.61037 V 2899.9594"
               id="path4552"
               inkscape:connector-curvature="0" />
            <path
               inkscape:connector-curvature="0"
               id="path4554"
               d="M -2264.7175,-901.48335 V 2859.6418"
               style="fill:none;fill-rule:evenodd;stroke:#ffffff;stroke-width:24.87326241;stroke-linecap:butt;stroke-linejoin:miter;stroke-miterlimit:4;stroke-dasharray:none;stroke-opacity:1" />
            <path
               style="fill:none;fill-rule:evenodd;stroke:#ffffff;stroke-width:20.03550529;stroke-linecap:butt;stroke-linejoin:miter;stroke-miterlimit:4;stroke-dasharray:none;stroke-opacity:1"
               d="m -2871.3852,-238.73614 0,2440.35424"
               id="path4556"
               inkscape:connector-curvature="0" />
            <path
               inkscape:connector-curvature="0"
               id="path4558"
               d="m 161.95255,-164.61323 0,2303.51193"
               style="fill:none;fill-rule:evenodd;stroke:#ffffff;stroke-width:19.46565628;stroke-linecap:butt;stroke-linejoin:miter;stroke-miterlimit:4;stroke-dasharray:none;stroke-opacity:1" />
          </g>
          <g
             id="g4508"
             transform="matrix(1,0,0.00587999,1,-3829.5588,-1.5047149e-6)">
            <g
               transform="matrix(0.84588416,0,0,0.84588416,299.06224,386.75576)"
               id="g4483">
              <path
                 inkscape:connector-curvature="0"
                 id="path188"
                 style="fill:#c30e2e;fill-opacity:1;fill-rule:nonzero;stroke:none"
                 d="m 2849.7254,1285.7354 c -2.9619,-330.4185 269.8635,-489.04561 282.2049,-496.77931 -153.5262,-224.6121 -392.4543,-255.3831 -477.6915,-259.0035 -203.2206,-20.5686 -396.7326,119.6286 -499.7415,119.6286 -103.0089,0 -262.2942,-116.6664 -430.7943,-113.3754 -221.8149,3.291 -426.0225,128.8434 -540.2211,327.29191 -230.20684,399.3651 -58.7445,991.2552 165.3738,1315.4205 109.7556,158.4627 240.4089,337.0005 412.2003,330.4185 165.5382,-6.582 228.0675,-106.9584 427.8324,-106.9584 199.7649,0 256.0416,106.9584 430.9593,103.8318 177.8796,-3.4554 290.7615,-161.9181 399.6942,-320.8743 125.7171,-183.9681 177.7152,-362.0124 180.6771,-371.3916 -3.9492,-1.6455 -346.8735,-133.1217 -350.4936,-528.2088" />
              <path
                 d="m 2521.0571,315.59539 c 91.1595,-110.4132 152.7006,-263.9406 135.7503,-416.9661 -131.3208,5.271299 -290.2668,87.542399 -384.5568,197.9556 -84.4119,97.5825 -158.4588,253.9005 -138.393,403.8105 146.4549,11.3541 296.025,-74.5491 387.1995,-184.8"
                 style="fill:#00833c;fill-opacity:1;fill-rule:nonzero;stroke:none"
                 id="path190"
                 inkscape:connector-curvature="0" />
              <path
                 inkscape:connector-curvature="0"
                 d="m 1518.5399,1285.7354 c 2.9619,-330.4185 -269.8635,-489.04561 -282.2049,-496.77931 153.5262,-224.6121 392.4543,-255.3831 477.6915,-259.0035 203.2206,-20.5686 396.7326,119.6286 499.7415,119.6286 103.0089,0 262.2942,-116.6664 430.7943,-113.3754 221.8149,3.291 426.0225,128.8434 540.2211,327.29191 230.2068,399.3651 58.7445,991.2552 -165.3738,1315.4205 -109.7556,158.4627 -240.4089,337.0005 -412.2003,330.4185 -165.5382,-6.582 -228.0675,-106.9584 -427.8324,-106.9584 -199.7649,0 -256.0416,106.9584 -430.9593,103.8318 -177.8796,-3.4554 -290.7615,-161.9181 -399.6942,-320.8743 -125.7171,-183.9681 -177.7152,-362.0124 -180.6771,-371.3916 3.9492,-1.6455 346.8735,-133.1217 350.4936,-528.2088"
                 style="fill:#c30e2e;fill-opacity:1;fill-rule:nonzero;stroke:none"
                 id="path4307" />
              <path
                 style="fill:#ffffff;fill-rule:evenodd;stroke:none;stroke-width:1px;stroke-linecap:butt;stroke-linejoin:miter;stroke-opacity:1"
                 d="m 2925.0644,729.25759 c -111.4365,-75.7686 -218.562,29.8074 -113.8941,109.13671 120.2649,107.2485 134.718,150.2274 161.8218,208.0563 35.6391,89.2482 142.4631,30.933 133.3056,-60.4779 C 3084.464,882.0533 3003.7772,789.37459 2925.0644,729.25759 Z"
                 id="path4309"
                 inkscape:connector-curvature="0"
                 sodipodi:nodetypes="ccccc" />
            </g>
            <text
               id="text4502"
               y="169.05479"
               x="1184.8649"
               style="font-style:normal;font-weight:normal;line-height:0%;font-family:sans-serif;letter-spacing:0px;word-spacing:0px;fill:#000000;fill-opacity:1;stroke:none;stroke-width:1px;stroke-linecap:butt;stroke-linejoin:miter;stroke-opacity:1"
               xml:space="preserve"><tspan
                 style="font-style:normal;font-variant:normal;font-weight:normal;font-stretch:normal;font-size:549.39764404px;line-height:1.25;font-family:'Ubuntu Mono';-inkscape-font-specification:'Ubuntu Mono'"
                 y="169.05479"
                 x="1184.8649"
                 id="tspan4504"
                 sodipodi:role="line">gravity</tspan></text>
          </g>
          <path
             transform="matrix(0,1.2909178,-1.2909178,0,-1943.3079,8137.749)"
             inkscape:transform-center-y="0.00015395784"
             inkscape:transform-center-x="7.2042531e-05"
             d="m -4700.408,1269.1126 -1701.6109,-10e-5 -850.8053,-1473.63823 850.8055,-1473.63817 1701.6108,10e-5 850.8054,1473.63823 z"
             inkscape:randomized="0"
             inkscape:rounded="0"
             inkscape:flatsided="true"
             sodipodi:arg2="1.5707963"
             sodipodi:arg1="1.0471976"
             sodipodi:r2="1473.6381"
             sodipodi:r1="1701.6108"
             sodipodi:cy="-204.52565"
             sodipodi:cx="-5551.2134"
             sodipodi:sides="6"
             id="path4560"
             style="fill:none;fill-opacity:1;stroke:#c30e2e;stroke-width:73.99320221;stroke-miterlimit:4;stroke-dasharray:none;stroke-opacity:1"
             sodipodi:type="star" />
        </g>
      </g>
    </g>
  </g>
</svg>
